<?xml version="1.0" encoding="UTF-8"?>
<svg id="Capa_1" data-name="Capa 1" xmlns="http://www.w3.org/2000/svg" viewBox="0 0 172 54">
  <defs>
    <style>
      .cls-1 {
        fill: #143b21;
      }
    </style>
  </defs>
  <g>
    <g>
      <g>
        <path class="cls-1" d="M51.64,3c2.64,0,4.36.79,5.68,1.86.89-.36,2.18-.68,3.21-.68,1.93-.07,3.54.89,3.21,2.5-.46,2.32-4.86,3.5-6.96,3.75-1.21.14-2.82.14-3.93,0-2.36,3.43-4.04,5.07-6.32,6.61.46.07,1.61.36,2.68.64,1.29.32,2.93.64,3.68.64,2.07,0,3.64-.68,5.82-2.57.18-.14.36-.36.46-.25.11.11-.11.32-.32.54-2.61,2.43-3.86,3.46-6.18,3.46-1.36,0-2.86-.32-3.86-.71-1.18-.46-2.5-1.07-2.96-1.18-.86.68-2.64,1.79-4.82,1.82-1.43.04-2.18-.25-2.14-.82.07-1.18,3.25-1.86,5.32-1.82.54,0,1.25.07,1.68.14,1.96-1.82,2.86-4.11,4.93-6.82-2.36-.5-4.43-1.79-4.43-3.61s1.89-3.5,5.25-3.5ZM43.36,17.18c-1.5.04-2.82.64-2.86,1.29-.04.46.54.61,1.14.57,1.11,0,2.82-.71,3.75-1.61-.54-.14-1.29-.29-2.04-.25ZM51.04,9.79c1.64-2.07,4-4.04,5.68-4.71-1-.68-2.75-1.57-5.25-1.57-3.04,0-4.75,1.39-4.75,2.89,0,1.68,2,2.89,4.32,3.39ZM56.82,10.04c2.11-.29,5.39-1.54,5.89-3.64.25-1.18-.68-1.96-2.18-1.93-.82,0-2.14.43-2.82.86.25.32.5.75.68,1.21.32.93.21,1.32.14,1.32s-.04-.36-.54-1.25c-.21-.39-.61-.82-.82-1-1.39.79-2.82,2.61-4.14,4.5,1.07.14,2.5.11,3.79-.07Z"/>
        <path class="cls-1" d="M67.79,12.89c.75-.04.82.14.46.57-.46.54-1.25,1.43-2,2.36-.46.57-.93,1.18-1.25,1.75-.25.43-.25.71-.11.82.18.14.54,0,.82-.14.36-.18,1.04-.64,1.61-1.11.75-.61,1.32-1.11,1.71-1.46.21-.18.39-.36.5-.25.11.11-.07.29-.46.64-.46.43-1.32,1.18-2,1.71-.71.57-1.89,1.43-3.07,1.43-.68,0-1-.32-1.04-.75-.04-.39.18-.89.5-1.29l-.04-.04c-.93.82-2.57,2-3.93,2.07-.79.04-1.61-.29-1.46-1.43.07-.54.36-1.11,1-1.86l-.04-.04c-.11.11-.25.25-.46.43-.14.11-.25.18-.32.11-.07-.11.11-.32.5-.68.11-.11.71-.61,1.07-.86.36-.25.96-.64,1.64-1,1.39-.71,2.64-1.14,3.57-1,.71.11.96.75.75,1.36.86-.89,1.46-1.36,2.04-1.36ZM61.57,15.5c-1.46,1.43-2.07,2.36-2,2.82.04.25.21.36.46.36.68,0,2.04-.79,3-1.68,1.14-1,2.43-2.54,2.46-3.11.04-.46-.25-.64-.64-.64-.71,0-2,.96-3.29,2.25Z"/>
      </g>
      <path class="cls-1" d="M30.96,19.62c-2.81,1.43-6.29,2.05-9,2.05-1.52,0-3.19-.29-4.29-.67-1.38,2-2.33,4.05-2.52,6.05-.14,1.67.71,2.81,2.19,2.86,2.52.05,5.1-1.95,7.81-4.81.76-.76,1.57-1.48,2.29-1.48.9,0,1.1.19.62.76-.86,1.05-1.48,1.9-2.38,3.14-.81,1.05-1.38,1.86-2.81,3.71v.05c1.14-.62,2.81-1.62,4.52-2.9,1.24-.9,2.24-1.71,3.33-2.67.29-.24.52-.48.67-.33.1.1-.05.33-.62.86s-1.81,1.52-2.86,2.29c-1.95,1.48-4,2.67-5.57,3.52-2.29,3.29-2.86,4.1-5.9,7.67-3.76,4.38-8.62,7.71-11.24,7.71-1,0-2.14-.43-2-2,.24-2.76,4.81-5.9,7.38-7.52,4.24-2.62,5.38-3,9.14-5.33.9-1.24,3.95-5.48,3.95-5.48-1.95,1.95-4.33,3.33-6.38,3.48-2.71.24-4.76-.81-4.95-3.43-.14-2,.95-4.76,3-7.29-1.52-1-2.62-2.62-2.62-4.52,0-3.76,3.52-5.95,7.43-5.95,2.14,0,4.33.67,5.9,2.33,2.81-1.24,5.38-1.86,7.05-1.86s3.76.57,3.76,2.76c0,2.62-2.67,5.29-5.9,7ZM10.53,38.52c-2.52,1.62-6.14,4.81-6.1,7,0,.81.43,1.14,1.1,1.24.76.1,1.76-.24,2.95-.95,1.62-1,4-3.33,6.1-6.14,1.76-2.33,3.29-4.33,4.62-6.33-2.76,1.81-4.29,2.33-8.67,5.19ZM13.2,15.33c0,1.76,1.05,3.24,2.43,4.19.95-1.1,2.67-2.86,4.24-4.05,1.81-1.38,3.62-2.52,5.38-3.38-1.57-1.43-3.43-2.14-5.43-2.14-3.38,0-6.62,1.95-6.62,5.38ZM33.1,10.38c-1.71,0-3.95.62-6.48,2.1.52.76.95,1.86,1.1,2.57.19.95.1,1.38,0,1.38-.14.05-.1-.38-.38-1.19-.29-.9-.81-1.76-1.38-2.38-1.57,1.05-3.24,2.38-4.95,4.1-1.14,1.14-2.19,2.43-3.05,3.71,1.24.38,2.62.57,3.95.57,2.67,0,5.57-.67,8.48-2.24,3-1.57,5.9-4.52,5.9-6.48,0-1.76-1.76-2.14-3.19-2.14Z"/>
      <path class="cls-1" d="M32.58,24.71c-.71.57-1.24,1-1.71,1.43-.38.33-.57.48-.71.38-.1-.1,0-.29.52-.76s2.24-1.9,3.38-2.67c1.24-.86,1.86-1.05,2.76-1.05,1,0,1.1.14.52.76-.62.67-1.52,1.76-2.48,2.95-.76,1-1.52,2.05-1.76,2.57-.19.38-.19.71-.05.86.19.19.62.14,1.1-.1,1.05-.57,2.1-1.33,3.57-2.48,2.29-1.76,3.62-2.95,5.14-4.14.38-.29.67-.52,1.38-.52.81,0,1.29.1.71.76-.86,1.05-1.57,1.81-2.52,3.05-.81,1-1.43,1.86-1.76,2.43-.29.48-.33.9-.14,1.05.24.19.62.1,1.1-.14.48-.24,1.38-.81,2.14-1.43.95-.76,1.76-1.48,2.29-1.95.29-.29.57-.48.67-.33.14.1-.24.48-.38.62-.57.57-1.76,1.57-2.9,2.48-.86.67-2.52,1.9-4.1,1.9-.95,0-1.48-.43-1.48-1.14,0-.67.33-1.33.76-1.95.52-.76,1.43-1.67,2.24-2.48l-.05-.05c-.95.76-2.57,2.05-3.81,3-1.95,1.48-3.67,2.62-5.1,2.62-1,0-1.62-.48-1.57-1.33.05-.67.48-1.38.9-1.95.95-1.29,1.9-2.43,3.38-3.81-.33.14-1.33.86-2.05,1.43Z"/>
      <path class="cls-1" d="M58.1,21.95c1-.05,1.1.19.62.76-.62.71-1.67,1.9-2.67,3.14-.62.76-1.24,1.57-1.67,2.33-.33.57-.33.95-.14,1.1.24.19.71,0,1.1-.19.48-.24,1.38-.86,2.14-1.48,1-.81,1.76-1.48,2.29-1.95.29-.24.52-.48.67-.33.14.14-.1.38-.62.86-.62.57-1.76,1.57-2.67,2.29-.95.76-2.52,1.9-4.1,1.9-.9,0-1.33-.43-1.38-1-.05-.52.24-1.19.67-1.71l-.05-.05c-1.24,1.1-3.43,2.67-5.24,2.76-1.05.05-2.14-.38-1.95-1.9.1-.71.48-1.48,1.33-2.48l-.05-.05c-.14.14-.33.33-.62.57-.19.14-.33.24-.43.14-.1-.14.14-.43.67-.9.14-.14.95-.81,1.43-1.14s1.29-.86,2.19-1.33c1.86-.95,3.52-1.52,4.76-1.33.95.14,1.29,1,1,1.81,1.14-1.19,1.95-1.81,2.71-1.81ZM49.82,25.43c-1.95,1.9-2.76,3.14-2.67,3.76.05.33.29.48.62.48.9,0,2.71-1.05,4-2.24,1.52-1.33,3.24-3.38,3.29-4.14.05-.62-.33-.86-.86-.86-.95,0-2.67,1.29-4.38,3Z"/>
      <path class="cls-1" d="M68.05,28.19c-.33.57-.33.95-.14,1.1.24.19.71,0,1.1-.19.48-.24,1.38-.86,2.14-1.48,1-.81,1.76-1.48,2.29-1.95.29-.24.52-.48.67-.33.14.14-.1.38-.62.86-.62.57-1.76,1.57-2.67,2.29-.95.76-2.52,1.9-4.1,1.9-.9,0-1.33-.43-1.38-1-.05-.52.24-1.19.67-1.71l-.05-.05c-1.24,1.1-3.43,2.67-5.24,2.76-1.05.05-2.14-.38-1.95-1.9.1-.71.48-1.48,1.33-2.48l-.05-.05c-.14.14-.33.33-.62.57-.19.14-.33.24-.43.14-.1-.14.24-.52.76-1,.14-.14.86-.71,1.33-1.05s1.24-.86,2.19-1.33c1.67-.86,3.43-1.52,4.76-1.33.9.14,1.24.9,1.05,1.62h.05c.9-1.29,2.81-3.81,4-5.24,2.57-3.1,4.67-5.05,8-7.67,2.76-2.1,6.67-4.71,10.48-4.71s6.14,2.43,5.86,5.05c-.05.62-.33,1.05-.48,1-.1-.05.1-.38.14-1,.14-2.05-2.1-3.81-5.67-3.81-4.62,0-7.29,1.67-9.81,3.95-2,1.86-5,5.52-9.67,11.57-1.48,1.9-3.52,4.71-3.95,5.48ZM63.48,25.43c-1.95,1.9-2.76,3.14-2.67,3.76.05.33.29.48.62.48.9,0,2.71-1.05,4-2.24,1.52-1.33,3.24-3.38,3.29-4.14.05-.62-.33-.86-.86-.86-.95,0-2.67,1.29-4.38,3Z"/>
      <path class="cls-1" d="M85.48,21.95c1-.05,1.1.19.62.76-.62.71-1.67,1.9-2.67,3.14-.62.76-1.24,1.57-1.67,2.33-.33.57-.33.95-.14,1.1.24.19.71,0,1.1-.19.48-.24,1.38-.86,2.14-1.48,1-.81,1.76-1.48,2.29-1.95.29-.24.52-.48.67-.33.14.14-.1.38-.62.86-.62.57-1.76,1.57-2.67,2.29-.95.76-2.52,1.9-4.1,1.9-.9,0-1.33-.43-1.38-1-.05-.52.24-1.19.67-1.71l-.05-.05c-1.24,1.1-3.43,2.67-5.24,2.76-1.05.05-2.14-.38-1.95-1.9.1-.71.48-1.48,1.33-2.48l-.05-.05c-.14.14-.33.33-.62.57-.19.14-.33.24-.43.14-.1-.14.14-.43.67-.9.14-.14.95-.81,1.43-1.14s1.29-.86,2.19-1.33c1.86-.95,3.52-1.52,4.76-1.33.95.14,1.29,1,1,1.81,1.14-1.19,1.95-1.81,2.71-1.81ZM77.2,25.43c-1.95,1.9-2.76,3.14-2.67,3.76.05.33.29.48.62.48.9,0,2.71-1.05,4-2.24,1.52-1.33,3.24-3.38,3.29-4.14.05-.62-.33-.86-.86-.86-.95,0-2.67,1.29-4.38,3Z"/>
      <path class="cls-1" d="M96.01,15.9c3.43-4,8.05-8.71,10.81-11,1.1-.86,2.57-1.9,3.95-1.9,1.24,0,1.57.86,1.43,1.71-.38,2.29-4.9,6.1-9.71,10.1-2.9,2.38-5.9,4.67-9.43,7.76-.71.9-2.95,4.05-3.48,5.33-.14.33-.43,1-.1,1.29.33.24,1.05-.05,1.48-.29.62-.33,1.29-.81,1.95-1.33.86-.67,1.48-1.19,2.1-1.76.19-.19.57-.52.71-.38.1.1-.05.29-.33.57-.57.57-1.76,1.62-2.9,2.48-.95.71-2.71,1.9-4.29,1.9-.95,0-1.52-.43-1.48-1.29.05-1.14,1.24-3,2.67-4.81l-.05-.05c-.71.62-1.43,1.29-1.95,1.76-.29.24-.43.29-.52.14-.05-.14.1-.29.24-.43.19-.19,1.76-1.57,3.24-2.81,1.38-1.81,3.62-4.62,5.67-7ZM102.05,14.29c4.62-4,8.81-7.76,9-9.86.05-.62-.29-.9-.81-.9-.81,0-1.95.95-2.95,1.9-1.57,1.57-3.71,3.86-6.19,6.81-3.48,4.14-4.71,5.67-7.29,9.1,4.52-3.95,6.05-5.14,8.24-7.05Z"/>
      <path class="cls-1" d="M96.96,24.71c-.71.57-1.24,1-1.71,1.43-.38.33-.57.48-.71.38-.1-.1,0-.29.52-.76s2.24-1.9,3.38-2.67c1.24-.86,1.86-1.05,2.76-1.05,1,0,1.1.14.52.76-.62.67-1.52,1.76-2.48,2.95-.76,1-1.52,2.05-1.76,2.57-.19.38-.19.71-.05.86.19.19.62.14,1.1-.1,1.05-.57,2.1-1.33,3.57-2.48,2.29-1.76,3.62-2.95,5.14-4.14.38-.29.67-.52,1.38-.52.81,0,1.29.1.71.76-.86,1.05-1.57,1.81-2.52,3.05-.81,1-1.43,1.86-1.76,2.43-.29.48-.33.9-.14,1.05.24.19.62.1,1.1-.14.48-.24,1.38-.81,2.14-1.43.95-.76,1.76-1.48,2.29-1.95.29-.29.57-.48.67-.33.14.1-.24.48-.38.62-.57.57-1.76,1.57-2.9,2.48-.86.67-2.52,1.9-4.1,1.9-.95,0-1.48-.43-1.48-1.14,0-.67.33-1.33.76-1.95.52-.76,1.43-1.67,2.24-2.48l-.05-.05c-.95.76-2.57,2.05-3.81,3-1.95,1.48-3.67,2.62-5.1,2.62-1,0-1.62-.48-1.57-1.33.05-.67.48-1.38.9-1.95.95-1.29,1.9-2.43,3.38-3.81-.33.14-1.33.86-2.05,1.43Z"/>
      <path class="cls-1" d="M110.53,26.19c-.38.33-.62.57-.76.43-.14-.14.19-.48.67-.9,1.05-.95,2.33-2.14,3.24-3,.9-.81,4.19-3.81,6.19-5.29.76-.57,3.05-2.43,5.57-2.43.71,0,1.14.14,1.52.33.33.19.52.48.43.57-.05.05-.1-.1-.48-.24-.24-.1-.67-.19-1.29-.19-2.19,0-4.14,1.81-5.71,3.52-2.05,2.19-3.95,4.62-5.95,7.48l.05.05c1.33-1.19,2.62-2.29,4.05-3.19.95-.62,2.81-1.52,4.19-1.38,1.05.1,1.62.71,1.48,1.81-.19,1.38-1.48,3.1-2.95,4.38-1.67,1.38-4,2.19-5.24,2.19-.57,0-1.43-.14-1.43-.95,0-.9,1.48-1.57,2.67-1.9,1.33-.38,2.29-.62,3.14-1,.48-.52,1.29-1.71,1.52-2.38.19-.52.33-1.43-.48-1.43-.86,0-2.38.76-4.1,2.1-2.1,1.67-2.81,2.19-4.81,4.48-1.1,1.19-3.14,4-4.52,5.67-3.57,4.38-8.1,8.57-13,11.62-4.62,2.86-9.81,4.48-14.76,4.48-8.38,0-15.72-2.98-16.24-10.45-.06-.89.44-.72.52-.1.97,7.1,7.62,9.36,16,9.36,5.38,0,10.05-1.24,14.05-3.71,3.76-2.33,6.95-5.9,10.19-10.14,1.76-2.29,8.67-11.24,11.05-14.1v-.05c-2.19,2-4.05,3.71-4.81,4.38ZM115.58,29.67c.33,0,1.1-.19,1.76-.67.57-.38,1.76-1.43,2.19-2-.57.29-1.71.67-2.48.9-1.1.33-2.05.81-2.05,1.33,0,.24.14.43.52.43h.05Z"/>
      <path class="cls-1" d="M123.91,28.48c.14-1.14,1.1-2.81,3.43-4.52,1.57-1.14,4.29-2.29,5.86-2,.95.14,1.29,1,1,1.81,1.14-1.19,1.95-1.81,2.71-1.81,1-.05,1.1.19.62.76-.62.71-1.67,1.9-2.67,3.14-.62.76-1.24,1.57-1.67,2.33-.33.57-.33.95-.14,1.1.24.19.71,0,1.1-.19.48-.24,1.38-.86,2.14-1.48,1-.81,1.76-1.48,2.29-1.95.29-.24.52-.48.67-.33s-.1.38-.62.86c-.62.57-1.76,1.57-2.67,2.29-.95.76-2.52,1.9-4.1,1.9-.9,0-1.33-.43-1.38-1-.05-.52.24-1.19.67-1.71l-.05-.05c-1.24,1.1-3.43,2.67-5.24,2.76-1.05.05-2.1-.33-1.95-1.9ZM128.63,25.43c-1.95,1.9-2.76,3.14-2.67,3.76.05.33.29.48.62.48.9,0,2.71-1.05,4-2.24,1.52-1.33,3.24-3.38,3.29-4.14.05-.62-.33-.86-.86-.86-.95,0-2.67,1.29-4.38,3Z"/>
      <path class="cls-1" d="M147.01,29.14c.05-1.05,1.1-2.24,2-3.33.71-.86,1.43-1.67,2-2.33.19-.24.29-.52.05-.67-.24-.14-.76.05-1.24.29-.86.43-2.19,1.24-3.71,2.43-2.1,1.62-3.24,2.71-5.33,4.33-.43.33-.71.43-1.24.43-.67,0-1-.1-.62-.76.33-.62,1.33-2.19,2.1-3.19.52-.71,1.38-1.81,1.9-2.48.33-.43.43-.67.33-.81-.14-.19-.43-.1-.71.05-.57.29-1.29.81-1.86,1.29-.62.52-1.38,1.19-2.05,1.81-.48.43-.67.57-.81.43-.1-.14.14-.38.71-.9s1.62-1.52,2.48-2.19c1.29-1,2.24-1.57,3.24-1.57.9,0,1.19.52,1.19,1.05,0,.57-.38,1.19-1,2.05-.71.95-1.71,2.24-2.24,3l.05.05c1.14-.95,2.71-2.33,4.38-3.57,1.67-1.24,3.76-2.57,5.19-2.57,1,0,1.57.48,1.48,1.29-.14.86-1.14,1.95-1.9,2.9-.76.9-1.33,1.71-1.57,2.1-.38.62-.38.9-.19,1.05.24.19.76,0,1.14-.19.57-.29,1.24-.67,2.29-1.48.81-.62,1.76-1.48,2.29-1.95.38-.33.52-.38.62-.29.1.1-.05.29-.38.62-.43.43-1.86,1.71-2.86,2.48-.95.71-2.81,1.9-4.29,1.9-.9,0-1.48-.43-1.43-1.24Z"/>
      <path class="cls-1" d="M167.34,21.95c1-.05,1.1.19.62.76-.62.71-1.67,1.9-2.67,3.14-.62.76-1.24,1.57-1.67,2.33-.33.57-.33.95-.14,1.1.24.19.71,0,1.1-.19.48-.24,1.38-.86,2.14-1.48,1-.81,1.76-1.48,2.29-1.95.29-.24.52-.48.67-.33s-.1.38-.62.86c-.62.57-1.76,1.57-2.67,2.29-.95.76-2.52,1.9-4.1,1.9-.9,0-1.33-.43-1.38-1-.05-.52.24-1.19.67-1.71l-.05-.05c-1.24,1.1-3.43,2.67-5.24,2.76-1.05.05-2.14-.38-1.95-1.9.1-.71.48-1.48,1.33-2.48l-.05-.05c-.14.14-.33.33-.62.57-.19.14-.33.24-.43.14-.1-.14.14-.43.67-.9.14-.14.95-.81,1.43-1.14s1.29-.86,2.19-1.33c1.86-.95,3.52-1.52,4.76-1.33.95.14,1.29,1,1,1.81,1.14-1.19,1.95-1.81,2.71-1.81ZM159.05,25.43c-1.95,1.9-2.76,3.14-2.67,3.76.05.33.29.48.62.48.9,0,2.71-1.05,4-2.24,1.52-1.33,3.24-3.38,3.29-4.14.05-.62-.33-.86-.86-.86-.95,0-2.67,1.29-4.38,3Z"/>
    </g>
    <path class="cls-1" d="M97.11,41.56c-.56-.05-1.09-.04-1.61.03-.52.06-1.02.17-1.51.32-.97.3-1.86.77-2.69,1.35-.83.58-1.6,1.27-2.36,2.02-.75.75-1.46,1.56-2.24,2.36.3-1.08.81-2.09,1.44-3.02.65-.92,1.44-1.77,2.4-2.44.95-.67,2.07-1.14,3.24-1.28.58-.07,1.17-.06,1.74.05.28.05.56.13.83.23.27.1.53.23.76.39Z"/>
    <path class="cls-1" d="M89.95,14.48c.09.13.17.25.28.35.1.1.23.19.35.26.13.07.26.12.4.16.13.04.28.06.41.05l-.15.14c.01-.49.1-.97.27-1.43.08-.23.19-.46.33-.68.14-.22.34-.44.6-.58.26-.14.58-.18.86-.14.28.03.54.13.77.25.23.12.44.26.64.41.2.16.38.31.57.51l.23.24-.24.27c-.58.66-1.21,1.23-1.87,1.77-.66.54-1.37,1.03-2.13,1.45-.75.43-1.54.8-2.37,1.07-.83.28-1.69.45-2.57.51h-.18s-.13-.09-.13-.09c-.09-.07-.15-.13-.22-.19-.07-.06-.13-.12-.2-.19-.13-.13-.25-.26-.37-.39-.24-.27-.46-.55-.65-.86-.38-.6-.69-1.26-.87-1.95-.18-.69-.25-1.4-.19-2.1.05-.7.22-1.37.48-2-.11.67-.15,1.35-.1,2,.06.66.19,1.3.43,1.9.24.6.54,1.17.93,1.68.19.25.4.5.62.73.11.11.23.22.34.33.06.05.12.1.18.15.06.05.13.1.17.13l-.31-.09c.39-.05.79-.1,1.18-.19.39-.09.77-.19,1.15-.32.38-.13.75-.28,1.12-.44.37-.16.73-.34,1.08-.54.35-.2.7-.4,1.04-.63.34-.22.68-.45,1-.69.33-.24.65-.5.96-.76.31-.26.62-.54.9-.81v.52c-.27-.31-.61-.61-.96-.82-.35-.21-.73-.32-1.04-.18-.15.07-.3.19-.42.35-.13.17-.24.36-.34.55-.2.39-.33.83-.4,1.27l-.03.16-.13-.02c-.18-.02-.32-.07-.47-.13-.15-.06-.29-.14-.41-.24-.12-.1-.24-.21-.33-.34-.09-.12-.16-.26-.22-.4Z"/>
    <path class="cls-1" d="M91.89,12.22c-.16-.3-.37-.44-.57-.61-.21-.15-.42-.29-.64-.44-.05-.04-.11-.07-.17-.11-.06-.04-.11-.08-.17-.12-.12-.07-.23-.16-.35-.24-.12-.08-.23-.18-.35-.28-.12-.1-.23-.21-.35-.34.17-.03.33-.04.49-.04.16,0,.32.03.47.06.16.03.3.09.45.15.15.06.29.14.43.23.27.18.52.42.69.73.09.15.15.32.17.5.02.18,0,.37-.1.51Z"/>
  </g>
  <g>
    <path class="cls-1" d="M29.86,33.51c0,.23-.05.45-.14.65-.17.4-.49.67-.95.81-.13.05-.26.07-.38.07-.36,0-.68-.09-.96-.28v-.07c.38,0,.68-.11.91-.37.2-.22.3-.51.3-.86s-.09-.64-.26-.84c-.17-.2-.41-.3-.7-.3h-.5v4.4c0,.13.05.24.14.34.09.09.21.14.34.14h.1v.07h-2.29v-.07h.1c.13,0,.24-.05.33-.14s.14-.2.15-.34v-4.2c0-.12-.05-.23-.14-.31-.1-.08-.21-.12-.34-.12h-.1v-.08h2.51c.61,0,1.07.13,1.38.39.32.28.48.65.48,1.11Z"/>
    <path class="cls-1" d="M30.3,37.27v-.07h.09c.11,0,.21-.04.29-.11.08-.07.12-.17.12-.28v-3.57c0-.11-.04-.2-.12-.28-.08-.08-.18-.12-.29-.12h-.09v-.08h2.09v.08h-.09c-.11,0-.21.04-.29.11-.08.07-.12.17-.12.29v3.74h.9c.31,0,.57-.1.79-.29.22-.19.37-.45.47-.79h.08l-.29,1.38h-3.54Z"/>
    <path class="cls-1" d="M39.31,37.2h.06v.07h-2.21v-.07h.06c.1,0,.17-.03.22-.09.05-.06.07-.12.07-.17s0-.1-.03-.16l-.29-.69h-1.59l-.3.7c-.02.05-.03.1-.03.15s.02.11.07.17.12.09.22.09h.06v.07h-1.5v-.07h.06c.11,0,.21-.03.32-.1.11-.07.19-.16.26-.29l1.56-3.34c.22-.5.34-.8.35-.92h.07l2.02,4.23c.06.15.15.25.26.32.11.07.22.1.33.1ZM35.71,35.8h1.34l-.66-1.57-.68,1.57Z"/>
    <path class="cls-1" d="M40.01,36.74c-.48-.41-.72-.99-.72-1.73s.24-1.31.72-1.73c.48-.42,1.14-.62,1.99-.62.66,0,1.23.12,1.69.35v1.2h-.05c-.13-.45-.32-.76-.58-.96s-.59-.29-.99-.29c-.53,0-.94.18-1.22.55-.28.36-.42.86-.42,1.49s.14,1.13.41,1.5c.29.38.67.57,1.17.57.36,0,.65-.06.88-.17.23-.11.41-.29.55-.53.13-.24.23-.57.3-.99h.05l.09,1.14c-.16.26-.39.46-.71.62-.32.16-.71.23-1.18.23-.84,0-1.5-.21-1.99-.63Z"/>
    <path class="cls-1" d="M49.24,37.2h.06v.07h-2.21v-.07h.06c.1,0,.17-.03.22-.09.05-.06.07-.12.07-.17s0-.1-.03-.16l-.29-.69h-1.59l-.3.7c-.02.05-.03.1-.03.15s.02.11.07.17.12.09.22.09h.06v.07h-1.5v-.07h.06c.11,0,.21-.03.32-.1.11-.07.19-.16.26-.29l1.56-3.34c.22-.5.34-.8.35-.92h.07l2.02,4.23c.06.15.15.25.26.32.11.07.22.1.33.1ZM45.64,35.8h1.34l-.66-1.57-.68,1.57Z"/>
    <path class="cls-1" d="M49.51,36.65c0-.33.07-.6.22-.84h.06s0,.07,0,.1c0,.31.11.57.33.8.22.23.52.35.91.35.28,0,.5-.06.65-.2.15-.13.23-.28.23-.44s-.04-.29-.13-.39-.23-.21-.43-.34l-1.07-.68c-.45-.28-.68-.64-.68-1.08,0-.05,0-.09,0-.14.03-.36.17-.64.41-.84s.54-.3.87-.3.69.02,1.06.07h.41l-.11.99h-.07c0-.23-.08-.42-.24-.56-.16-.13-.38-.2-.65-.2s-.48.06-.64.17c-.16.11-.23.26-.23.45,0,.15.07.28.23.39.06.05.15.1.26.17l1.19.74c.41.25.62.6.62,1.04,0,.47-.17.83-.49,1.08-.33.25-.75.38-1.28.38-.32,0-.6-.04-.85-.11-.25-.08-.43-.17-.54-.29-.03-.09-.05-.2-.05-.32Z"/>
    <path class="cls-1" d="M59.62,33.51c0,.23-.05.45-.14.65-.17.4-.49.67-.95.81-.13.05-.26.07-.38.07-.36,0-.68-.09-.96-.28v-.07c.38,0,.68-.11.91-.37.2-.22.3-.51.3-.86s-.09-.64-.26-.84c-.17-.2-.41-.3-.7-.3h-.5v4.4c0,.13.05.24.14.34.09.09.21.14.34.14h.1v.07h-2.29v-.07h.1c.13,0,.24-.05.33-.14s.14-.2.15-.34v-4.2c0-.12-.05-.23-.14-.31-.1-.08-.21-.12-.34-.12h-.1v-.08h2.51c.61,0,1.07.13,1.38.39.32.28.48.65.48,1.11Z"/>
    <path class="cls-1" d="M64.21,37.2h.06v.07h-2.21v-.07h.06c.1,0,.17-.03.22-.09.05-.06.07-.12.07-.17s0-.1-.03-.16l-.29-.69h-1.59l-.3.7c-.02.05-.03.1-.03.15s.02.11.07.17.12.09.22.09h.06v.07h-1.5v-.07h.06c.11,0,.21-.03.32-.1.11-.07.19-.16.26-.29l1.56-3.34c.22-.5.34-.8.35-.92h.07l2.02,4.23c.06.15.15.25.26.32.11.07.22.1.33.1ZM60.62,35.8h1.34l-.66-1.57-.68,1.57Z"/>
    <path class="cls-1" d="M66.18,33.07h-.24v3.73c0,.12.04.22.12.29.08.07.18.11.28.11h.08v.07h-2.07v-.07h.09c.11,0,.2-.04.28-.11.08-.07.12-.17.12-.28v-3.58c0-.11-.04-.2-.12-.28-.08-.08-.17-.11-.28-.11h-.1v-.08h2.31c.45,0,.83.09,1.14.26.34.2.51.52.51.97,0,.29-.09.55-.26.79-.18.23-.44.38-.78.43.14.05.27.13.4.26.13.12.24.25.32.38.16.28.33.55.5.79.18.24.32.39.43.46.11.07.24.11.4.11v.07h-.63c-.42,0-.74-.05-.96-.15-.22-.1-.42-.29-.6-.57-.27-.43-.44-.77-.5-1.02-.06-.15-.13-.26-.21-.34-.08-.08-.16-.12-.24-.13v-.06h.19c.43,0,.69-.26.78-.75.02-.08.03-.14.03-.2s0-.13,0-.23-.04-.21-.09-.33c-.06-.12-.13-.21-.22-.27-.16-.09-.32-.14-.48-.15-.06,0-.12,0-.19,0Z"/>
    <path class="cls-1" d="M74.13,37.2h.06v.07h-2.21v-.07h.06c.1,0,.17-.03.22-.09.05-.06.07-.12.07-.17s0-.1-.03-.16l-.29-.69h-1.59l-.3.7c-.02.05-.03.1-.03.15s.02.11.07.17.12.09.22.09h.06v.07h-1.5v-.07h.06c.11,0,.21-.03.32-.1.11-.07.19-.16.26-.29l1.56-3.34c.22-.5.34-.8.35-.92h.07l2.02,4.23c.06.15.15.25.26.32.11.07.22.1.33.1ZM70.54,35.8h1.34l-.66-1.57-.68,1.57Z"/>
    <path class="cls-1" d="M81.79,32.08h-.13c-.11,0-.2.03-.27.1-.07.07-.11.15-.12.25v2.93c0,.62-.19,1.11-.58,1.47-.39.36-.91.54-1.59.54-.79,0-1.4-.18-1.82-.53-.42-.35-.63-.84-.63-1.47v-2.92c0-.15-.07-.26-.2-.33-.06-.03-.13-.05-.2-.05h-.12v-.08h2.17v.08h-.12c-.11,0-.2.03-.28.1-.08.07-.11.15-.12.26v2.87c0,.53.13.95.39,1.26s.62.47,1.08.47.82-.15,1.08-.44c.27-.29.4-.69.41-1.19v-2.97c0-.15-.08-.25-.2-.32-.06-.03-.12-.05-.2-.05h-.12v-.08h1.57v.08Z"/>
    <path class="cls-1" d="M83.96,33.07h-.24v3.73c0,.12.04.22.12.29.08.07.18.11.28.11h.08v.07h-2.07v-.07h.09c.11,0,.2-.04.28-.11.08-.07.12-.17.12-.28v-3.58c0-.11-.04-.2-.12-.28-.08-.08-.17-.11-.28-.11h-.1v-.08h2.31c.45,0,.83.09,1.14.26.34.2.51.52.51.97,0,.29-.09.55-.26.79-.18.23-.44.38-.78.43.14.05.27.13.4.26.13.12.24.25.32.38.16.28.33.55.5.79.18.24.32.39.43.46.11.07.24.11.4.11v.07h-.63c-.42,0-.74-.05-.96-.15-.22-.1-.42-.29-.6-.57-.27-.43-.44-.77-.5-1.02-.06-.15-.13-.26-.21-.34-.08-.08-.16-.12-.24-.13v-.06h.19c.43,0,.69-.26.78-.75.02-.08.03-.14.03-.2s0-.13,0-.23-.04-.21-.09-.33c-.06-.12-.13-.21-.22-.27-.16-.09-.32-.14-.48-.15-.06,0-.12,0-.19,0Z"/>
    <path class="cls-1" d="M90.37,32.76h2.11v.08h-.13c-.11,0-.21.03-.29.11-.08.07-.12.16-.12.27v3.29c0,.31.02.57.06.77l.02.11h-.07l-3.45-3.05v2.49c0,.11.05.2.12.27.08.07.17.11.29.11h.13v.07h-2.11v-.07h.12c.12,0,.21-.04.29-.11.08-.07.12-.16.12-.27v-3.31c0-.3-.02-.55-.06-.74v-.11s.05,0,.05,0l3.44,3.03v-2.48c0-.11-.04-.2-.12-.27-.08-.07-.17-.11-.29-.11h-.13v-.08Z"/>
    <path class="cls-1" d="M97.65,37.2h.06v.07h-2.21v-.07h.06c.1,0,.17-.03.22-.09s.07-.12.07-.17-.01-.1-.03-.16l-.29-.69h-1.59l-.3.7c-.02.05-.03.1-.03.15s.02.11.07.17.12.09.22.09h.06v.07h-1.5v-.07h.06c.11,0,.21-.03.32-.1.11-.07.19-.16.26-.29l1.56-3.34c.22-.5.34-.8.35-.92h.07l2.02,4.23c.07.15.15.25.26.32.11.07.22.1.33.1ZM94.05,35.8h1.34l-.66-1.57-.68,1.57Z"/>
    <path class="cls-1" d="M97.92,36.65c0-.33.07-.6.22-.84h.06s0,.07,0,.1c0,.31.11.57.33.8.22.23.52.35.91.35.28,0,.5-.06.65-.2.15-.13.23-.28.23-.44s-.04-.29-.13-.39c-.09-.1-.23-.21-.43-.34l-1.07-.68c-.45-.28-.68-.64-.68-1.08,0-.05,0-.09,0-.14.03-.36.17-.64.41-.84.25-.2.54-.3.87-.3s.69.02,1.06.07h.41l-.11.99h-.07c0-.23-.08-.42-.24-.56-.16-.13-.38-.2-.65-.2s-.48.06-.64.17c-.16.11-.23.26-.23.45,0,.15.08.28.23.39.06.05.15.1.26.17l1.2.74c.41.25.62.6.62,1.04,0,.47-.16.83-.49,1.08-.33.25-.75.38-1.28.38-.32,0-.6-.04-.85-.11-.25-.08-.43-.17-.54-.29-.03-.09-.05-.2-.05-.32Z"/>
    <path class="cls-1" d="M118.25,32.08h-.11c-.15,0-.29.04-.43.13-.14.09-.24.19-.32.31l-1.48,2.36v1.84c0,.13.05.24.14.34.09.09.21.14.34.14h.09v.07s-2.28,0-2.28,0v-.07h.1c.13,0,.24-.05.33-.14s.14-.2.15-.33v-1.86l-1.44-2.36c-.08-.12-.18-.22-.32-.3-.14-.08-.28-.12-.43-.12h-.11v-.08h2.49v.08h-.1c-.11,0-.2.05-.26.15-.03.06-.05.11-.05.16s.01.1.04.15l1.08,1.96,1.12-1.96c.03-.05.04-.1.04-.15s-.02-.1-.05-.15c-.06-.11-.15-.16-.26-.16h-.09v-.08h1.79v.08Z"/>
    <path class="cls-1" d="M125.43,37.2h.07v.07h-2.4v-.07h.07c.11,0,.19-.03.24-.1.05-.07.08-.13.08-.19s-.01-.12-.04-.18l-.37-.92h-1.76l-.39.92c-.03.06-.04.13-.04.18s.03.12.08.19c.06.07.14.1.25.1h.06v.07h-1.61v-.07h.07c.11,0,.23-.04.35-.11.12-.07.21-.17.29-.32l1.74-3.93c.24-.5.36-.83.38-.99h.07l2.23,4.9c.08.15.17.25.29.33.11.07.23.11.35.11ZM121.45,35.48h1.5l-.73-1.85-.77,1.85Z"/>
    <path class="cls-1" d="M125.53,37.27v-.06l2.47-4.16h-1.61c-.22,0-.38.07-.5.2-.12.12-.18.3-.18.52v.06h-.08v-1.19c.06.02.18.05.35.07.17.03.33.04.47.04h2.21c.15,0,.3,0,.46-.03.16-.02.27-.04.31-.06v.06l-2.44,4.26h1.3c.67,0,1.12-.37,1.35-1.09h.08l-.33,1.38h-3.87Z"/>
    <path class="cls-1" d="M134.98,32.83h-.11c-.1,0-.18.03-.24.09-.06.06-.1.13-.11.22v2.49c0,.54-.17.97-.5,1.28-.33.31-.82.46-1.48.46s-1.16-.15-1.53-.45c-.36-.3-.55-.72-.55-1.27v-2.5c0-.09-.03-.17-.1-.23-.07-.06-.15-.09-.24-.09h-.11v-.08h1.98v.08h-.11c-.1,0-.18.03-.24.09-.07.06-.1.14-.1.23v2.44c0,.46.11.82.32,1.08.21.26.51.39.9.39s.69-.12.91-.37.33-.59.33-1.02v-2.53c0-.1-.04-.17-.11-.23-.06-.06-.15-.09-.24-.09h-.1v-.08h1.39v.08Z"/>
    <path class="cls-1" d="M135.37,37.27v-.07h.09c.11,0,.21-.04.29-.11.08-.07.12-.17.12-.28v-3.57c0-.11-.04-.2-.12-.28s-.18-.12-.29-.12h-.09v-.08h2.09v.08h-.09c-.12,0-.21.04-.29.11-.08.07-.12.17-.12.29v3.74h.9c.31,0,.57-.1.79-.29.22-.19.37-.45.47-.79h.08l-.29,1.38h-3.54Z"/>
    <path class="cls-1" d="M142.97,37.27h-3.54v-.07h.09c.11,0,.21-.04.29-.11.08-.07.12-.17.12-.28v-3.58c0-.11-.05-.2-.12-.28-.08-.08-.17-.11-.29-.11h-.09v-.08h2.65c.14,0,.28-.01.44-.04.16-.02.27-.05.34-.07v1.2h-.08v-.07c0-.22-.06-.39-.18-.52-.12-.12-.29-.19-.5-.2h-1.08v1.83h.86c.17,0,.31-.06.41-.17s.16-.25.16-.42v-.05h.08v1.59h-.08v-.05c0-.23-.09-.41-.26-.51-.09-.06-.19-.08-.3-.08h-.87v1.78h.9c.31,0,.58-.1.79-.29.22-.19.38-.45.48-.79h.07l-.29,1.38Z"/>
    <path class="cls-1" d="M145.69,32.83c-.12,0-.22.04-.3.12s-.13.17-.14.29v3.8c0,.32-.09.61-.27.86s-.4.43-.65.53-.51.16-.75.16c-.06,0-.13,0-.2,0v-.07c.27-.12.47-.31.59-.58.13-.27.19-.57.19-.91v-3.79c0-.11-.05-.2-.14-.28s-.19-.12-.31-.12h-.08v-.08h2.14v.08h-.09Z"/>
    <path class="cls-1" d="M146.16,35.01c0-.72.24-1.3.73-1.72.48-.42,1.13-.64,1.93-.64s1.45.21,1.94.64c.49.42.73,1,.73,1.72s-.24,1.3-.73,1.72c-.49.42-1.13.64-1.93.64s-1.45-.21-1.93-.64c-.49-.42-.73-1-.73-1.72ZM147.31,35.01c0,.63.14,1.13.41,1.5.27.37.64.55,1.1.55s.82-.18,1.1-.55.41-.87.41-1.5-.14-1.13-.41-1.5c-.27-.37-.64-.55-1.1-.55s-.82.18-1.1.55c-.27.37-.41.87-.41,1.5Z"/>
    <path class="cls-1" d="M152.11,36.65c0-.33.07-.6.22-.84h.06s0,.07,0,.1c0,.31.11.57.33.8.22.23.52.35.91.35.28,0,.5-.06.65-.2.15-.13.23-.28.23-.44s-.04-.29-.13-.39c-.09-.1-.23-.21-.43-.34l-1.07-.68c-.45-.28-.68-.64-.68-1.08,0-.05,0-.09,0-.14.03-.36.17-.64.41-.84.25-.2.54-.3.87-.3s.69.02,1.06.07h.41l-.11.99h-.07c0-.23-.08-.42-.24-.56-.16-.13-.38-.2-.65-.2s-.48.06-.64.17c-.16.11-.23.26-.23.45,0,.15.08.28.23.39.06.05.15.1.26.17l1.2.74c.41.25.62.6.62,1.04,0,.47-.16.83-.49,1.08-.33.25-.75.38-1.28.38-.32,0-.6-.04-.85-.11-.25-.08-.43-.17-.54-.29-.03-.09-.05-.2-.05-.32Z"/>
  </g>
</svg>